<?xml version="1.0" standalone="no"?>
<!DOCTYPE svg PUBLIC "-//W3C//DTD SVG 20010904//EN"
 "http://www.w3.org/TR/2001/REC-SVG-20010904/DTD/svg10.dtd">
<svg version="1.0" xmlns="http://www.w3.org/2000/svg"
 width="512.000000pt" height="512.000000pt" viewBox="0 0 512.000000 512.000000"
 preserveAspectRatio="xMidYMid meet">
<metadata>
Created by potrace 1.11, written by Peter Selinger 2001-2013
</metadata>
<g transform="translate(0.000000,512.000000) scale(0.100000,-0.100000)"
fill="#000000" stroke="none">
<path d="M2378 5115 c-2 -1 -39 -5 -82 -9 -44 -4 -82 -8 -85 -10 -3 -2 -31 -7
-61 -11 -193 -23 -482 -113 -695 -215 -569 -273 -1025 -754 -1262 -1333 -41
-101 -79 -209 -88 -247 -1 -8 -10 -40 -19 -70 -33 -114 -58 -256 -76 -430 -8
-81 -5 -463 5 -520 3 -19 15 -87 25 -151 122 -726 564 -1370 1205 -1756 84
-51 235 -128 323 -164 12 -5 32 -13 45 -19 103 -44 361 -118 474 -136 19 -3
45 -7 57 -10 11 -2 48 -7 81 -10 33 -4 64 -9 69 -12 16 -9 440 -10 526 -1 323
36 587 113 875 254 247 121 468 279 666 475 423 419 681 955 746 1545 13 113
9 510 -6 610 -111 756 -502 1382 -1126 1800 -310 208 -654 339 -1050 401 -94
14 -534 30 -547 19z"/>
</g>
</svg>
